<svg width="12" height="12" viewBox="0 0 12 12" fill="none" xmlns="http://www.w3.org/2000/svg">
<path d="M10.9054 4.16254L7.65876 3.62299L6.20744 0.258476C6.1678 0.166357 6.10258 0.0917853 6.02202 0.0464573C5.81999 -0.0675939 5.57448 0.0274488 5.47346 0.258476L4.02213 3.62299L0.775504 4.16254C0.685995 4.17716 0.604158 4.22541 0.541501 4.29852C0.465753 4.38755 0.424012 4.50732 0.425451 4.63152C0.42689 4.75572 0.47139 4.87419 0.549174 4.96089L2.89815 7.57968L2.34319 11.2776C2.33018 11.3636 2.3385 11.4521 2.36722 11.533C2.39594 11.6138 2.44391 11.6839 2.50568 11.7352C2.56745 11.7865 2.64055 11.817 2.7167 11.8232C2.79285 11.8294 2.869 11.8111 2.93651 11.7703L5.84045 10.0245L8.74438 11.7703C8.82366 11.8186 8.91573 11.8347 9.00396 11.8171C9.22645 11.7733 9.37606 11.532 9.3377 11.2776L8.78274 7.57968L11.1317 4.96089C11.1957 4.88925 11.2379 4.79567 11.2506 4.69331C11.2852 4.43743 11.1292 4.20055 10.9054 4.16254Z" fill="#FC8B40"/>
</svg>
